<svg xmlns="http://www.w3.org/2000/svg" xmlns:xlink="http://www.w3.org/1999/xlink" width="475" zoomAndPan="magnify" viewBox="0 0 356.25 72.749999" height="97" preserveAspectRatio="xMidYMid meet" version="1.0"><defs><g/><clipPath id="8887527a04"><path d="M 7.488281 7.25 L 65.785156 7.25 L 65.785156 65.550781 L 7.488281 65.550781 Z M 7.488281 7.25 " clip-rule="nonzero"/></clipPath><clipPath id="2c6eca20ce"><path d="M 15.960938 17.570312 L 57 17.570312 L 57 54.941406 L 15.960938 54.941406 Z M 15.960938 17.570312 " clip-rule="nonzero"/></clipPath></defs><g fill="#c90000" fill-opacity="1"><g transform="translate(77.460629, 49.107866)"><g><path d="M 6.78125 0 L 0.71875 -24.890625 L 3.890625 -24.890625 L 6.5625 -12.90625 L 8.625 -3.59375 L 8.703125 -3.59375 L 11.015625 -12.90625 L 14.15625 -24.890625 L 17.578125 -24.890625 L 20.609375 -12.90625 L 22.921875 -3.640625 L 23.03125 -3.640625 L 25.171875 -12.90625 L 27.984375 -24.890625 L 31.0625 -24.890625 L 24.671875 0 L 21.359375 0 L 18.109375 -12.40625 L 15.828125 -21.53125 L 15.765625 -21.53125 L 13.40625 -12.40625 L 10.09375 0 Z M 6.78125 0 "/></g></g></g><g fill="#c90000" fill-opacity="1"><g transform="translate(109.218689, 49.107866)"><g><path d="M 4.453125 -22.71875 C 3.835938 -22.71875 3.390625 -22.863281 3.109375 -23.15625 C 2.835938 -23.457031 2.703125 -23.84375 2.703125 -24.3125 L 2.703125 -24.78125 C 2.703125 -25.257812 2.835938 -25.644531 3.109375 -25.9375 C 3.390625 -26.238281 3.835938 -26.390625 4.453125 -26.390625 C 5.078125 -26.390625 5.523438 -26.238281 5.796875 -25.9375 C 6.066406 -25.644531 6.203125 -25.257812 6.203125 -24.78125 L 6.203125 -24.3125 C 6.203125 -23.84375 6.066406 -23.457031 5.796875 -23.15625 C 5.523438 -22.863281 5.078125 -22.71875 4.453125 -22.71875 Z M 3.03125 -18.40625 L 5.890625 -18.40625 L 5.890625 0 L 3.03125 0 Z M 3.03125 -18.40625 "/></g></g></g><g fill="#c90000" fill-opacity="1"><g transform="translate(118.129485, 49.107866)"><g><path d="M 3.03125 0 L 3.03125 -18.40625 L 5.890625 -18.40625 L 5.890625 -15.40625 L 6.03125 -15.40625 C 6.476562 -16.445312 7.109375 -17.273438 7.921875 -17.890625 C 8.742188 -18.515625 9.847656 -18.828125 11.234375 -18.828125 C 13.128906 -18.828125 14.628906 -18.210938 15.734375 -16.984375 C 16.847656 -15.765625 17.40625 -14.035156 17.40625 -11.796875 L 17.40625 0 L 14.546875 0 L 14.546875 -11.296875 C 14.546875 -14.609375 13.15625 -16.265625 10.375 -16.265625 C 9.800781 -16.265625 9.25 -16.191406 8.71875 -16.046875 C 8.1875 -15.898438 7.703125 -15.679688 7.265625 -15.390625 C 6.835938 -15.109375 6.5 -14.75 6.25 -14.3125 C 6.007812 -13.875 5.890625 -13.359375 5.890625 -12.765625 L 5.890625 0 Z M 3.03125 0 "/></g></g></g><g fill="#c90000" fill-opacity="1"><g transform="translate(138.3748, 49.107866)"><g><path d="M 14.796875 -3 L 14.65625 -3 C 13.539062 -0.71875 11.742188 0.421875 9.265625 0.421875 C 8.128906 0.421875 7.097656 0.195312 6.171875 -0.25 C 5.242188 -0.695312 4.453125 -1.335938 3.796875 -2.171875 C 3.140625 -3.003906 2.640625 -4.015625 2.296875 -5.203125 C 1.953125 -6.390625 1.78125 -7.722656 1.78125 -9.203125 C 1.78125 -10.671875 1.953125 -12 2.296875 -13.1875 C 2.640625 -14.375 3.140625 -15.382812 3.796875 -16.21875 C 4.453125 -17.050781 5.242188 -17.691406 6.171875 -18.140625 C 7.097656 -18.597656 8.128906 -18.828125 9.265625 -18.828125 C 10.554688 -18.828125 11.65625 -18.546875 12.5625 -17.984375 C 13.476562 -17.429688 14.175781 -16.570312 14.65625 -15.40625 L 14.796875 -15.40625 L 14.796875 -26.390625 L 17.65625 -26.390625 L 17.65625 0 L 14.796875 0 Z M 10.0625 -2.140625 C 10.695312 -2.140625 11.304688 -2.222656 11.890625 -2.390625 C 12.472656 -2.554688 12.976562 -2.796875 13.40625 -3.109375 C 13.832031 -3.429688 14.171875 -3.820312 14.421875 -4.28125 C 14.671875 -4.75 14.796875 -5.285156 14.796875 -5.890625 L 14.796875 -12.734375 C 14.796875 -13.234375 14.671875 -13.703125 14.421875 -14.140625 C 14.171875 -14.578125 13.832031 -14.945312 13.40625 -15.25 C 12.976562 -15.5625 12.472656 -15.804688 11.890625 -15.984375 C 11.304688 -16.171875 10.695312 -16.265625 10.0625 -16.265625 C 8.4375 -16.265625 7.160156 -15.757812 6.234375 -14.75 C 5.304688 -13.738281 4.84375 -12.410156 4.84375 -10.765625 L 4.84375 -7.625 C 4.84375 -5.988281 5.304688 -4.664062 6.234375 -3.65625 C 7.160156 -2.644531 8.4375 -2.140625 10.0625 -2.140625 Z M 10.0625 -2.140625 "/></g></g></g><g fill="#c90000" fill-opacity="1"><g transform="translate(159.047834, 49.107866)"><g><path d="M 9.953125 0.421875 C 8.691406 0.421875 7.554688 0.195312 6.546875 -0.25 C 5.535156 -0.695312 4.664062 -1.34375 3.9375 -2.1875 C 3.21875 -3.03125 2.660156 -4.039062 2.265625 -5.21875 C 1.867188 -6.394531 1.671875 -7.722656 1.671875 -9.203125 C 1.671875 -10.648438 1.867188 -11.96875 2.265625 -13.15625 C 2.660156 -14.34375 3.21875 -15.359375 3.9375 -16.203125 C 4.664062 -17.046875 5.535156 -17.691406 6.546875 -18.140625 C 7.554688 -18.597656 8.691406 -18.828125 9.953125 -18.828125 C 11.179688 -18.828125 12.28125 -18.597656 13.25 -18.140625 C 14.226562 -17.691406 15.0625 -17.066406 15.75 -16.265625 C 16.445312 -15.472656 16.976562 -14.53125 17.34375 -13.4375 C 17.71875 -12.34375 17.90625 -11.144531 17.90625 -9.84375 L 17.90625 -8.484375 L 4.671875 -8.484375 L 4.671875 -7.625 C 4.671875 -6.84375 4.796875 -6.113281 5.046875 -5.4375 C 5.296875 -4.757812 5.648438 -4.171875 6.109375 -3.671875 C 6.578125 -3.171875 7.148438 -2.773438 7.828125 -2.484375 C 8.503906 -2.203125 9.269531 -2.0625 10.125 -2.0625 C 11.289062 -2.0625 12.304688 -2.332031 13.171875 -2.875 C 14.035156 -3.425781 14.707031 -4.210938 15.1875 -5.234375 L 17.21875 -3.78125 C 16.625 -2.519531 15.695312 -1.503906 14.4375 -0.734375 C 13.175781 0.0351562 11.679688 0.421875 9.953125 0.421875 Z M 9.953125 -16.4375 C 9.160156 -16.4375 8.441406 -16.300781 7.796875 -16.03125 C 7.160156 -15.757812 6.609375 -15.375 6.140625 -14.875 C 5.679688 -14.375 5.320312 -13.785156 5.0625 -13.109375 C 4.800781 -12.429688 4.671875 -11.6875 4.671875 -10.875 L 4.671875 -10.625 L 14.828125 -10.625 L 14.828125 -11.015625 C 14.828125 -12.660156 14.378906 -13.972656 13.484375 -14.953125 C 12.597656 -15.941406 11.421875 -16.4375 9.953125 -16.4375 Z M 9.953125 -16.4375 "/></g></g></g><g fill="#c90000" fill-opacity="1"><g transform="translate(178.615926, 49.107866)"><g><path d="M 7.09375 0 L 0.640625 -18.40625 L 3.5 -18.40625 L 6.703125 -9.265625 L 8.703125 -3 L 8.875 -3 L 10.875 -9.265625 L 14.15625 -18.40625 L 16.90625 -18.40625 L 10.40625 0 Z M 7.09375 0 "/></g></g></g><g fill="#c90000" fill-opacity="1"><g transform="translate(196.152361, 49.107866)"><g/></g></g><g fill="#c90000" fill-opacity="1"><g transform="translate(204.564147, 49.107866)"><g><path d="M 10.296875 0.421875 C 8.285156 0.421875 6.566406 0.0351562 5.140625 -0.734375 C 3.710938 -1.503906 2.5 -2.566406 1.5 -3.921875 L 3.703125 -5.78125 C 4.585938 -4.613281 5.5625 -3.722656 6.625 -3.109375 C 7.695312 -2.503906 8.957031 -2.203125 10.40625 -2.203125 C 12.1875 -2.203125 13.546875 -2.628906 14.484375 -3.484375 C 15.429688 -4.347656 15.90625 -5.492188 15.90625 -6.921875 C 15.90625 -8.109375 15.546875 -9.019531 14.828125 -9.65625 C 14.117188 -10.300781 12.941406 -10.816406 11.296875 -11.203125 L 9.265625 -11.65625 C 6.984375 -12.175781 5.242188 -12.96875 4.046875 -14.03125 C 2.847656 -15.09375 2.25 -16.582031 2.25 -18.5 C 2.25 -19.59375 2.445312 -20.566406 2.84375 -21.421875 C 3.25 -22.285156 3.816406 -23 4.546875 -23.5625 C 5.273438 -24.132812 6.144531 -24.566406 7.15625 -24.859375 C 8.164062 -25.160156 9.273438 -25.3125 10.484375 -25.3125 C 12.359375 -25.3125 13.96875 -24.96875 15.3125 -24.28125 C 16.65625 -23.59375 17.789062 -22.582031 18.71875 -21.25 L 16.46875 -19.609375 C 15.78125 -20.554688 14.945312 -21.300781 13.96875 -21.84375 C 13 -22.394531 11.789062 -22.671875 10.34375 -22.671875 C 8.75 -22.671875 7.492188 -22.332031 6.578125 -21.65625 C 5.660156 -20.976562 5.203125 -19.960938 5.203125 -18.609375 C 5.203125 -17.421875 5.585938 -16.523438 6.359375 -15.921875 C 7.140625 -15.316406 8.3125 -14.832031 9.875 -14.46875 L 11.90625 -14.015625 C 14.351562 -13.460938 16.125 -12.628906 17.21875 -11.515625 C 18.3125 -10.398438 18.859375 -8.914062 18.859375 -7.0625 C 18.859375 -5.914062 18.660156 -4.878906 18.265625 -3.953125 C 17.878906 -3.023438 17.316406 -2.238281 16.578125 -1.59375 C 15.835938 -0.957031 14.9375 -0.460938 13.875 -0.109375 C 12.820312 0.242188 11.628906 0.421875 10.296875 0.421875 Z M 10.296875 0.421875 "/></g></g></g><g fill="#c90000" fill-opacity="1"><g transform="translate(225.27282, 49.107866)"><g><path d="M 14.375 -18.40625 L 17.1875 -18.40625 L 8.953125 4.28125 C 8.734375 4.820312 8.515625 5.273438 8.296875 5.640625 C 8.085938 6.015625 7.828125 6.304688 7.515625 6.515625 C 7.210938 6.734375 6.828125 6.890625 6.359375 6.984375 C 5.898438 7.078125 5.335938 7.125 4.671875 7.125 L 3.203125 7.125 L 3.203125 4.640625 L 6.09375 4.640625 L 7.484375 0.71875 L 0.609375 -18.40625 L 3.453125 -18.40625 L 7.875 -5.890625 L 8.734375 -2.890625 L 8.90625 -2.890625 L 9.90625 -5.890625 Z M 14.375 -18.40625 "/></g></g></g><g fill="#c90000" fill-opacity="1"><g transform="translate(243.058761, 49.107866)"><g><path d="M 8.5625 0.421875 C 6.84375 0.421875 5.40625 0.0976562 4.25 -0.546875 C 3.101562 -1.203125 2.113281 -2.078125 1.28125 -3.171875 L 3.3125 -4.8125 C 4.03125 -3.90625 4.828125 -3.207031 5.703125 -2.71875 C 6.585938 -2.238281 7.609375 -2 8.765625 -2 C 9.984375 -2 10.929688 -2.257812 11.609375 -2.78125 C 12.285156 -3.300781 12.625 -4.035156 12.625 -4.984375 C 12.625 -5.703125 12.390625 -6.316406 11.921875 -6.828125 C 11.460938 -7.335938 10.625 -7.6875 9.40625 -7.875 L 7.953125 -8.09375 C 7.097656 -8.207031 6.3125 -8.390625 5.59375 -8.640625 C 4.882812 -8.890625 4.257812 -9.222656 3.71875 -9.640625 C 3.1875 -10.054688 2.769531 -10.570312 2.46875 -11.1875 C 2.175781 -11.8125 2.03125 -12.550781 2.03125 -13.40625 C 2.03125 -14.3125 2.195312 -15.101562 2.53125 -15.78125 C 2.863281 -16.457031 3.320312 -17.019531 3.90625 -17.46875 C 4.488281 -17.925781 5.179688 -18.265625 5.984375 -18.484375 C 6.796875 -18.710938 7.664062 -18.828125 8.59375 -18.828125 C 10.09375 -18.828125 11.347656 -18.5625 12.359375 -18.03125 C 13.367188 -17.507812 14.253906 -16.785156 15.015625 -15.859375 L 13.125 -14.15625 C 12.71875 -14.726562 12.117188 -15.242188 11.328125 -15.703125 C 10.546875 -16.171875 9.5625 -16.40625 8.375 -16.40625 C 7.1875 -16.40625 6.289062 -16.148438 5.6875 -15.640625 C 5.082031 -15.128906 4.78125 -14.429688 4.78125 -13.546875 C 4.78125 -12.640625 5.082031 -11.984375 5.6875 -11.578125 C 6.289062 -11.179688 7.164062 -10.890625 8.3125 -10.703125 L 9.734375 -10.484375 C 11.773438 -10.171875 13.222656 -9.582031 14.078125 -8.71875 C 14.941406 -7.851562 15.375 -6.71875 15.375 -5.3125 C 15.375 -3.53125 14.765625 -2.128906 13.546875 -1.109375 C 12.335938 -0.0859375 10.675781 0.421875 8.5625 0.421875 Z M 8.5625 0.421875 "/></g></g></g><g fill="#c90000" fill-opacity="1"><g transform="translate(260.416983, 49.107866)"><g><path d="M 7.09375 0 C 6.09375 0 5.335938 -0.273438 4.828125 -0.828125 C 4.316406 -1.390625 4.0625 -2.125 4.0625 -3.03125 L 4.0625 -15.90625 L 1.03125 -15.90625 L 1.03125 -18.40625 L 2.75 -18.40625 C 3.363281 -18.40625 3.78125 -18.523438 4 -18.765625 C 4.226562 -19.015625 4.34375 -19.453125 4.34375 -20.078125 L 4.34375 -23.5 L 6.921875 -23.5 L 6.921875 -18.40625 L 10.953125 -18.40625 L 10.953125 -15.90625 L 6.921875 -15.90625 L 6.921875 -2.5 L 10.65625 -2.5 L 10.65625 0 Z M 7.09375 0 "/></g></g></g><g fill="#c90000" fill-opacity="1"><g transform="translate(272.927735, 49.107866)"><g><path d="M 9.953125 0.421875 C 8.691406 0.421875 7.554688 0.195312 6.546875 -0.25 C 5.535156 -0.695312 4.664062 -1.34375 3.9375 -2.1875 C 3.21875 -3.03125 2.660156 -4.039062 2.265625 -5.21875 C 1.867188 -6.394531 1.671875 -7.722656 1.671875 -9.203125 C 1.671875 -10.648438 1.867188 -11.96875 2.265625 -13.15625 C 2.660156 -14.34375 3.21875 -15.359375 3.9375 -16.203125 C 4.664062 -17.046875 5.535156 -17.691406 6.546875 -18.140625 C 7.554688 -18.597656 8.691406 -18.828125 9.953125 -18.828125 C 11.179688 -18.828125 12.28125 -18.597656 13.25 -18.140625 C 14.226562 -17.691406 15.0625 -17.066406 15.75 -16.265625 C 16.445312 -15.472656 16.976562 -14.53125 17.34375 -13.4375 C 17.71875 -12.34375 17.90625 -11.144531 17.90625 -9.84375 L 17.90625 -8.484375 L 4.671875 -8.484375 L 4.671875 -7.625 C 4.671875 -6.84375 4.796875 -6.113281 5.046875 -5.4375 C 5.296875 -4.757812 5.648438 -4.171875 6.109375 -3.671875 C 6.578125 -3.171875 7.148438 -2.773438 7.828125 -2.484375 C 8.503906 -2.203125 9.269531 -2.0625 10.125 -2.0625 C 11.289062 -2.0625 12.304688 -2.332031 13.171875 -2.875 C 14.035156 -3.425781 14.707031 -4.210938 15.1875 -5.234375 L 17.21875 -3.78125 C 16.625 -2.519531 15.695312 -1.503906 14.4375 -0.734375 C 13.175781 0.0351562 11.679688 0.421875 9.953125 0.421875 Z M 9.953125 -16.4375 C 9.160156 -16.4375 8.441406 -16.300781 7.796875 -16.03125 C 7.160156 -15.757812 6.609375 -15.375 6.140625 -14.875 C 5.679688 -14.375 5.320312 -13.785156 5.0625 -13.109375 C 4.800781 -12.429688 4.671875 -11.6875 4.671875 -10.875 L 4.671875 -10.625 L 14.828125 -10.625 L 14.828125 -11.015625 C 14.828125 -12.660156 14.378906 -13.972656 13.484375 -14.953125 C 12.597656 -15.941406 11.421875 -16.4375 9.953125 -16.4375 Z M 9.953125 -16.4375 "/></g></g></g><g fill="#c90000" fill-opacity="1"><g transform="translate(292.495828, 49.107866)"><g><path d="M 3.03125 0 L 3.03125 -18.40625 L 5.890625 -18.40625 L 5.890625 -15.40625 L 6.03125 -15.40625 C 6.238281 -15.875 6.476562 -16.316406 6.75 -16.734375 C 7.03125 -17.148438 7.363281 -17.515625 7.75 -17.828125 C 8.144531 -18.140625 8.601562 -18.382812 9.125 -18.5625 C 9.644531 -18.738281 10.265625 -18.828125 10.984375 -18.828125 C 12.191406 -18.828125 13.304688 -18.535156 14.328125 -17.953125 C 15.347656 -17.367188 16.109375 -16.410156 16.609375 -15.078125 L 16.6875 -15.078125 C 17.019531 -16.078125 17.644531 -16.953125 18.5625 -17.703125 C 19.476562 -18.453125 20.71875 -18.828125 22.28125 -18.828125 C 24.164062 -18.828125 25.632812 -18.210938 26.6875 -16.984375 C 27.75 -15.765625 28.28125 -14.035156 28.28125 -11.796875 L 28.28125 0 L 25.421875 0 L 25.421875 -11.296875 C 25.421875 -12.941406 25.097656 -14.179688 24.453125 -15.015625 C 23.816406 -15.847656 22.796875 -16.265625 21.390625 -16.265625 C 20.816406 -16.265625 20.273438 -16.191406 19.765625 -16.046875 C 19.253906 -15.898438 18.796875 -15.679688 18.390625 -15.390625 C 17.992188 -15.109375 17.675781 -14.75 17.4375 -14.3125 C 17.195312 -13.875 17.078125 -13.359375 17.078125 -12.765625 L 17.078125 0 L 14.234375 0 L 14.234375 -11.296875 C 14.234375 -12.941406 13.910156 -14.179688 13.265625 -15.015625 C 12.617188 -15.847656 11.617188 -16.265625 10.265625 -16.265625 C 9.691406 -16.265625 9.144531 -16.191406 8.625 -16.046875 C 8.101562 -15.898438 7.640625 -15.679688 7.234375 -15.390625 C 6.828125 -15.109375 6.5 -14.75 6.25 -14.3125 C 6.007812 -13.875 5.890625 -13.359375 5.890625 -12.765625 L 5.890625 0 Z M 3.03125 0 "/></g></g></g><g fill="#c90000" fill-opacity="1"><g transform="translate(323.612293, 49.107866)"><g><path d="M 8.5625 0.421875 C 6.84375 0.421875 5.40625 0.0976562 4.25 -0.546875 C 3.101562 -1.203125 2.113281 -2.078125 1.28125 -3.171875 L 3.3125 -4.8125 C 4.03125 -3.90625 4.828125 -3.207031 5.703125 -2.71875 C 6.585938 -2.238281 7.609375 -2 8.765625 -2 C 9.984375 -2 10.929688 -2.257812 11.609375 -2.78125 C 12.285156 -3.300781 12.625 -4.035156 12.625 -4.984375 C 12.625 -5.703125 12.390625 -6.316406 11.921875 -6.828125 C 11.460938 -7.335938 10.625 -7.6875 9.40625 -7.875 L 7.953125 -8.09375 C 7.097656 -8.207031 6.3125 -8.390625 5.59375 -8.640625 C 4.882812 -8.890625 4.257812 -9.222656 3.71875 -9.640625 C 3.1875 -10.054688 2.769531 -10.570312 2.46875 -11.1875 C 2.175781 -11.8125 2.03125 -12.550781 2.03125 -13.40625 C 2.03125 -14.3125 2.195312 -15.101562 2.53125 -15.78125 C 2.863281 -16.457031 3.320312 -17.019531 3.90625 -17.46875 C 4.488281 -17.925781 5.179688 -18.265625 5.984375 -18.484375 C 6.796875 -18.710938 7.664062 -18.828125 8.59375 -18.828125 C 10.09375 -18.828125 11.347656 -18.5625 12.359375 -18.03125 C 13.367188 -17.507812 14.253906 -16.785156 15.015625 -15.859375 L 13.125 -14.15625 C 12.71875 -14.726562 12.117188 -15.242188 11.328125 -15.703125 C 10.546875 -16.171875 9.5625 -16.40625 8.375 -16.40625 C 7.1875 -16.40625 6.289062 -16.148438 5.6875 -15.640625 C 5.082031 -15.128906 4.78125 -14.429688 4.78125 -13.546875 C 4.78125 -12.640625 5.082031 -11.984375 5.6875 -11.578125 C 6.289062 -11.179688 7.164062 -10.890625 8.3125 -10.703125 L 9.734375 -10.484375 C 11.773438 -10.171875 13.222656 -9.582031 14.078125 -8.71875 C 14.941406 -7.851562 15.375 -6.71875 15.375 -5.3125 C 15.375 -3.53125 14.765625 -2.128906 13.546875 -1.109375 C 12.335938 -0.0859375 10.675781 0.421875 8.5625 0.421875 Z M 8.5625 0.421875 "/></g></g></g><g clip-path="url(#8887527a04)"><path fill="#c90000" d="M 57.730469 65.261719 L 15.25 65.261719 C 10.960938 65.261719 7.488281 61.785156 7.488281 57.496094 L 7.488281 15.015625 C 7.488281 10.726562 10.960938 7.25 15.25 7.25 L 57.730469 7.25 C 62.019531 7.25 65.496094 10.726562 65.496094 15.015625 L 65.496094 57.496094 C 65.496094 61.785156 62.019531 65.261719 57.730469 65.261719 Z M 57.730469 65.261719 " fill-opacity="1" fill-rule="nonzero"/></g><g clip-path="url(#2c6eca20ce)"><path fill="#ffffff" d="M 52.542969 43.40625 L 48.691406 43.40625 L 46.734375 39.867188 L 48.671875 36.371094 L 56.449219 36.371094 Z M 50.261719 47.085938 L 42.496094 47.085938 L 38.601562 40.054688 L 42.234375 40.054688 L 44.257812 43.707031 L 44.273438 43.730469 L 44.289062 43.746094 L 44.3125 43.761719 L 44.328125 43.78125 L 44.363281 43.796875 L 48.453125 43.796875 Z M 46.367188 54.519531 L 38.601562 54.519531 L 42.496094 47.496094 L 50.261719 47.496094 Z M 39.023438 47.382812 L 39.039062 47.347656 L 39.039062 47.332031 C 39.046875 47.316406 39.046875 47.300781 39.046875 47.285156 C 39.046875 47.265625 39.046875 47.25 39.039062 47.234375 L 39.039062 47.21875 L 39.023438 47.183594 L 36.71875 43.03125 L 38.25 40.265625 L 42.136719 47.285156 L 38.25 54.300781 L 36.71875 51.539062 Z M 34.609375 54.519531 L 26.832031 54.519531 L 30.726562 47.496094 L 34.011719 47.496094 L 36.253906 51.546875 Z M 24.519531 43.8125 L 28.4375 43.8125 L 30.378906 47.292969 L 26.492188 54.308594 L 22.601562 47.292969 Z M 20.648438 43.40625 L 24.542969 36.371094 L 32.316406 36.371094 L 30.507812 39.648438 L 26.417969 39.648438 L 26.382812 39.664062 L 26.367188 39.679688 L 26.34375 39.695312 L 26.328125 39.710938 L 26.3125 39.738281 L 24.289062 43.386719 L 20.65625 43.386719 Z M 20.304688 29.152344 L 24.191406 36.167969 L 20.304688 43.183594 L 16.425781 36.167969 Z M 26.3125 32.746094 L 26.328125 32.769531 L 26.34375 32.785156 L 26.367188 32.800781 L 26.382812 32.828125 L 26.417969 32.84375 L 30.597656 32.84375 L 32.324219 35.957031 L 24.550781 35.957031 L 20.65625 28.9375 L 24.199219 28.9375 Z M 22.601562 25.207031 L 26.492188 18.191406 L 30.378906 25.207031 L 28.542969 28.523438 L 24.4375 28.523438 Z M 34.609375 17.96875 L 36.554688 21.484375 L 34.609375 25.003906 L 30.726562 25.003906 L 26.832031 17.980469 L 34.609375 17.980469 Z M 38.84375 18.191406 L 42.730469 25.207031 L 38.84375 32.222656 L 37.019531 28.921875 L 39.023438 25.304688 L 39.039062 25.273438 L 39.039062 25.257812 C 39.046875 25.238281 39.046875 25.222656 39.046875 25.207031 C 39.046875 25.191406 39.046875 25.175781 39.039062 25.160156 L 39.039062 25.140625 L 39.023438 25.109375 L 37.019531 21.492188 Z M 50.855469 25.003906 L 43.089844 25.003906 L 39.195312 17.980469 L 46.96875 17.980469 Z M 44.433594 28.53125 L 44.363281 28.53125 L 44.328125 28.546875 L 44.3125 28.5625 L 44.289062 28.582031 L 44.273438 28.597656 L 44.257812 28.621094 L 42.144531 32.433594 L 39.195312 32.433594 L 43.089844 25.410156 L 50.867188 25.410156 L 49.136719 28.523438 L 44.433594 28.523438 Z M 46.496094 40.28125 L 48.226562 43.40625 L 44.777344 43.40625 Z M 44.769531 28.929688 L 48.902344 28.929688 L 46.960938 32.445312 L 46.71875 32.445312 Z M 44.425781 29.152344 L 46.253906 32.445312 L 42.609375 32.445312 Z M 40.539062 36.167969 L 42.375 32.851562 L 46.472656 32.851562 L 48.316406 36.167969 L 46.390625 39.648438 L 42.472656 39.648438 Z M 35.070312 25.003906 L 36.785156 21.90625 L 38.496094 25.003906 Z M 38.503906 25.410156 L 36.792969 28.507812 L 35.082031 25.410156 L 38.511719 25.410156 Z M 28.835938 28.832031 L 30.726562 25.410156 L 34.609375 25.410156 L 36.554688 28.921875 L 34.609375 32.433594 L 30.835938 32.433594 Z M 28.601562 29.257812 L 30.371094 32.453125 L 26.832031 32.453125 Z M 24.664062 28.9375 L 28.308594 28.9375 L 26.484375 32.230469 Z M 26.832031 40.054688 L 30.28125 40.054688 L 28.550781 43.167969 Z M 26.492188 40.273438 L 28.226562 43.40625 L 24.753906 43.40625 Z M 34.011719 47.085938 L 30.726562 47.085938 L 28.789062 43.59375 L 30.746094 40.054688 L 34.597656 40.054688 L 36.246094 43.03125 Z M 38.503906 47.496094 L 36.488281 51.121094 L 34.476562 47.496094 Z M 34.476562 47.085938 L 36.488281 43.453125 L 38.503906 47.085938 Z M 38.257812 39.648438 L 38.183594 39.648438 L 38.152344 39.664062 L 38.136719 39.679688 L 38.113281 39.695312 L 38.09375 39.710938 L 38.078125 39.738281 L 36.488281 42.613281 L 34.910156 39.753906 C 34.871094 39.6875 34.804688 39.648438 34.730469 39.648438 L 30.980469 39.648438 L 32.855469 36.265625 L 32.871094 36.234375 L 32.871094 36.214844 C 32.875 36.199219 32.878906 36.183594 32.878906 36.167969 C 32.878906 36.152344 32.875 36.136719 32.871094 36.117188 L 32.871094 36.101562 L 32.855469 36.070312 L 31.070312 32.851562 L 34.738281 32.851562 C 34.8125 32.851562 34.882812 32.8125 34.917969 32.746094 L 36.800781 29.347656 L 38.664062 32.746094 L 38.683594 32.769531 L 38.699219 32.785156 L 38.722656 32.800781 L 38.738281 32.820312 L 38.773438 32.835938 L 41.910156 32.835938 L 40.125 36.054688 C 40.089844 36.113281 40.089844 36.1875 40.125 36.25 L 42 39.632812 L 38.25 39.632812 Z M 42.699219 40.054688 L 46.171875 40.054688 L 44.433594 43.183594 Z M 52.542969 28.9375 L 56.4375 35.972656 L 48.671875 35.972656 L 46.945312 32.859375 L 47.082031 32.859375 C 47.160156 32.859375 47.226562 32.820312 47.261719 32.753906 L 49.375 28.9375 L 52.550781 28.9375 Z M 56.984375 36.214844 C 56.988281 36.199219 56.992188 36.183594 56.992188 36.167969 C 56.992188 36.152344 56.988281 36.136719 56.984375 36.117188 L 56.984375 36.101562 L 56.96875 36.070312 L 52.84375 28.628906 C 52.808594 28.5625 52.742188 28.523438 52.667969 28.523438 L 49.601562 28.523438 L 51.386719 25.304688 L 51.402344 25.273438 L 51.402344 25.257812 C 51.40625 25.238281 51.410156 25.222656 51.410156 25.207031 C 51.410156 25.191406 51.40625 25.175781 51.402344 25.160156 L 51.402344 25.140625 L 51.386719 25.109375 L 47.261719 17.675781 C 47.226562 17.613281 47.160156 17.570312 47.082031 17.570312 L 38.773438 17.570312 L 38.738281 17.585938 L 38.722656 17.605469 L 38.699219 17.621094 L 38.683594 17.636719 L 38.664062 17.660156 L 36.792969 21.066406 L 34.910156 17.675781 C 34.871094 17.613281 34.804688 17.570312 34.730469 17.570312 L 26.417969 17.570312 L 26.382812 17.585938 L 26.367188 17.605469 L 26.34375 17.621094 L 26.328125 17.636719 L 26.3125 17.660156 L 22.1875 25.109375 C 22.15625 25.171875 22.15625 25.242188 22.1875 25.304688 L 23.972656 28.523438 L 20.238281 28.523438 L 20.207031 28.539062 L 20.191406 28.554688 L 20.167969 28.574219 L 20.148438 28.589844 L 20.132812 28.613281 L 16.011719 36.070312 C 15.976562 36.128906 15.976562 36.203125 16.011719 36.265625 L 20.132812 43.707031 L 20.148438 43.730469 L 20.167969 43.746094 L 20.191406 43.761719 L 20.207031 43.78125 L 20.238281 43.796875 L 24.0625 43.796875 L 22.1875 47.175781 C 22.15625 47.238281 22.15625 47.3125 22.1875 47.371094 L 26.3125 54.8125 L 26.328125 54.839844 L 26.34375 54.855469 L 26.367188 54.871094 L 26.382812 54.886719 L 26.417969 54.902344 L 34.730469 54.902344 C 34.804688 54.902344 34.871094 54.863281 34.910156 54.796875 L 36.488281 51.96875 L 38.070312 54.828125 L 38.085938 54.855469 L 38.101562 54.871094 L 38.128906 54.886719 L 38.144531 54.902344 L 38.175781 54.917969 L 46.488281 54.917969 C 46.5625 54.917969 46.632812 54.878906 46.667969 54.8125 L 50.792969 47.371094 L 50.808594 47.339844 L 50.808594 47.332031 C 50.8125 47.316406 50.816406 47.300781 50.816406 47.285156 C 50.816406 47.265625 50.8125 47.25 50.808594 47.234375 L 50.808594 47.21875 L 50.792969 47.183594 L 48.917969 43.804688 L 52.667969 43.804688 C 52.742188 43.804688 52.808594 43.761719 52.84375 43.699219 L 56.96875 36.257812 L 56.984375 36.226562 L 56.984375 36.207031 L 56.984375 36.214844 " fill-opacity="1" fill-rule="nonzero"/></g></svg>